<mxfile host="app.diagrams.net" agent="Mozilla/5.0 (Windows NT 10.0; Win64; x64) AppleWebKit/537.36 (KHTML, like Gecko) Chrome/128.0.0.0 Safari/537.36" version="24.7.8">
  <diagram name="Page-1" id="JcwSnk18Nro1wtesEwcW">
    <mxGraphModel dx="724" dy="360" grid="1" gridSize="10" guides="1" tooltips="1" connect="1" arrows="1" fold="1" page="1" pageScale="1" pageWidth="850" pageHeight="1100" math="0" shadow="0">
      <root>
        <mxCell id="0" />
        <mxCell id="1" parent="0" />
        <mxCell id="7HebE7VQiL7tRIc1oUi--8" style="edgeStyle=orthogonalEdgeStyle;rounded=0;orthogonalLoop=1;jettySize=auto;html=1;exitX=0.75;exitY=0.25;exitDx=0;exitDy=0;exitPerimeter=0;entryX=0;entryY=0.25;entryDx=0;entryDy=0;" edge="1" parent="1" source="7HebE7VQiL7tRIc1oUi--1" target="7HebE7VQiL7tRIc1oUi--3">
          <mxGeometry relative="1" as="geometry" />
        </mxCell>
        <mxCell id="7HebE7VQiL7tRIc1oUi--1" value="" style="shape=actor;whiteSpace=wrap;html=1;" vertex="1" parent="1">
          <mxGeometry x="32" y="145" width="40" height="60" as="geometry" />
        </mxCell>
        <mxCell id="7HebE7VQiL7tRIc1oUi--9" style="edgeStyle=orthogonalEdgeStyle;rounded=0;orthogonalLoop=1;jettySize=auto;html=1;exitX=1;exitY=0.25;exitDx=0;exitDy=0;entryX=0;entryY=0.25;entryDx=0;entryDy=0;" edge="1" parent="1" source="7HebE7VQiL7tRIc1oUi--3" target="7HebE7VQiL7tRIc1oUi--4">
          <mxGeometry relative="1" as="geometry" />
        </mxCell>
        <mxCell id="7HebE7VQiL7tRIc1oUi--3" value="UI" style="whiteSpace=wrap;html=1;aspect=fixed;" vertex="1" parent="1">
          <mxGeometry x="117" y="140" width="80" height="80" as="geometry" />
        </mxCell>
        <mxCell id="7HebE7VQiL7tRIc1oUi--10" style="edgeStyle=orthogonalEdgeStyle;rounded=0;orthogonalLoop=1;jettySize=auto;html=1;exitX=1;exitY=0.25;exitDx=0;exitDy=0;entryX=0;entryY=0.25;entryDx=0;entryDy=0;" edge="1" parent="1" source="7HebE7VQiL7tRIc1oUi--4" target="7HebE7VQiL7tRIc1oUi--5">
          <mxGeometry relative="1" as="geometry" />
        </mxCell>
        <mxCell id="7HebE7VQiL7tRIc1oUi--12" style="edgeStyle=orthogonalEdgeStyle;rounded=0;orthogonalLoop=1;jettySize=auto;html=1;exitX=0;exitY=0.5;exitDx=0;exitDy=0;entryX=1;entryY=0.5;entryDx=0;entryDy=0;" edge="1" parent="1" source="7HebE7VQiL7tRIc1oUi--4" target="7HebE7VQiL7tRIc1oUi--3">
          <mxGeometry relative="1" as="geometry" />
        </mxCell>
        <mxCell id="7HebE7VQiL7tRIc1oUi--4" value="Backend" style="whiteSpace=wrap;html=1;aspect=fixed;" vertex="1" parent="1">
          <mxGeometry x="280" y="140" width="80" height="80" as="geometry" />
        </mxCell>
        <mxCell id="7HebE7VQiL7tRIc1oUi--11" style="edgeStyle=orthogonalEdgeStyle;rounded=0;orthogonalLoop=1;jettySize=auto;html=1;exitX=0;exitY=0.5;exitDx=0;exitDy=0;entryX=1;entryY=0.5;entryDx=0;entryDy=0;" edge="1" parent="1" source="7HebE7VQiL7tRIc1oUi--5" target="7HebE7VQiL7tRIc1oUi--4">
          <mxGeometry relative="1" as="geometry" />
        </mxCell>
        <mxCell id="7HebE7VQiL7tRIc1oUi--5" value="Gen AI&lt;div&gt;(Rakuten AI)&lt;/div&gt;" style="whiteSpace=wrap;html=1;aspect=fixed;" vertex="1" parent="1">
          <mxGeometry x="450" y="140" width="80" height="80" as="geometry" />
        </mxCell>
        <mxCell id="7HebE7VQiL7tRIc1oUi--7" style="edgeStyle=orthogonalEdgeStyle;rounded=0;orthogonalLoop=1;jettySize=auto;html=1;entryX=1;entryY=0.5;entryDx=0;entryDy=0;" edge="1" parent="1" source="7HebE7VQiL7tRIc1oUi--6" target="7HebE7VQiL7tRIc1oUi--5">
          <mxGeometry relative="1" as="geometry" />
        </mxCell>
        <mxCell id="7HebE7VQiL7tRIc1oUi--6" value="UI Framework Context" style="whiteSpace=wrap;html=1;shape=mxgraph.basic.document" vertex="1" parent="1">
          <mxGeometry x="557" y="145" width="70" height="70" as="geometry" />
        </mxCell>
        <mxCell id="7HebE7VQiL7tRIc1oUi--13" style="edgeStyle=orthogonalEdgeStyle;rounded=0;orthogonalLoop=1;jettySize=auto;html=1;exitX=0;exitY=0.5;exitDx=0;exitDy=0;entryX=0.9;entryY=0.5;entryDx=0;entryDy=0;entryPerimeter=0;" edge="1" parent="1" source="7HebE7VQiL7tRIc1oUi--3" target="7HebE7VQiL7tRIc1oUi--1">
          <mxGeometry relative="1" as="geometry" />
        </mxCell>
        <mxCell id="7HebE7VQiL7tRIc1oUi--14" value="Prompt" style="text;html=1;align=center;verticalAlign=middle;resizable=0;points=[];autosize=1;strokeColor=none;fillColor=none;" vertex="1" parent="1">
          <mxGeometry x="371" y="138" width="60" height="30" as="geometry" />
        </mxCell>
        <mxCell id="7HebE7VQiL7tRIc1oUi--15" value="Layout JSON" style="text;html=1;align=center;verticalAlign=middle;resizable=0;points=[];autosize=1;strokeColor=none;fillColor=none;" vertex="1" parent="1">
          <mxGeometry x="358" y="180" width="90" height="30" as="geometry" />
        </mxCell>
        <mxCell id="7HebE7VQiL7tRIc1oUi--16" value="Layout JSON" style="text;html=1;align=center;verticalAlign=middle;resizable=0;points=[];autosize=1;strokeColor=none;fillColor=none;" vertex="1" parent="1">
          <mxGeometry x="195" y="180" width="90" height="30" as="geometry" />
        </mxCell>
        <mxCell id="7HebE7VQiL7tRIc1oUi--17" value="Customer" style="text;html=1;align=center;verticalAlign=middle;resizable=0;points=[];autosize=1;strokeColor=none;fillColor=none;" vertex="1" parent="1">
          <mxGeometry x="12" y="205" width="80" height="30" as="geometry" />
        </mxCell>
      </root>
    </mxGraphModel>
  </diagram>
</mxfile>
